<?xml version="1.0" encoding="UTF-8"?>
<svg version="1.1" viewBox="0 0 512 512" xmlns="http://www.w3.org/2000/svg">
<g>
<path d="m372.96 475.26h127.04v-103.21h-24.318c-0.38479 0.72206-0.75871 1.4501-1.1504 2.168-0.96142 1.7621-1.9448 3.5135-2.9473 5.25-1.0024 1.7365-2.0236 3.4597-3.0664 5.1699-1.0428 1.7102-2.1069 3.4066-3.1895 5.0898-1.0825 1.6832-2.1851 3.3522-3.3066 5.0078-1.1216 1.6556-2.262 3.2966-3.4219 4.9238-1.1599 1.6273-2.3395 3.2416-3.5371 4.8398-1.1976 1.5983-2.4138 3.1814-3.6484 4.75-1.2346 1.5686-2.4868 3.1218-3.7578 4.6602-1.271 1.5383-2.5605 3.063-3.8672 4.5703-1.3066 1.5073-2.631 2.9989-3.9726 4.4746-1.3417 1.4757-2.7002 2.9336-4.0762 4.377-1.376 1.4433-2.768 2.8709-4.1777 4.2812s-2.8366 2.805-4.2793 4.1816c-1.4427 1.3767-2.9019 2.7358-4.377 4.0781s-2.966 2.6673-4.4727 3.9746c-1.5067 1.3073-3.0287 2.5975-4.5664 3.8691-1.5377 1.2716-3.0902 2.5245-4.6582 3.7598-1.568 1.2352-3.1524 2.4522-4.75 3.6504-1.5976 1.1982-3.2093 2.3766-4.8359 3.5371s-3.2669 2.3036-4.9219 3.4258c-1.6549 1.1222-3.3252 2.2235-5.0078 3.3066-1.6826 1.0831-3.3783 2.148-5.0879 3.1914s-3.4321 2.0654-5.168 3.0684-3.4846 1.9853-5.2461 2.9473c-0.40922 0.22347-0.82576 0.43502-1.2363 0.65625z" color="#000000" stroke-width="1.8977" style="-inkscape-stroke:none"/>
</g>
<g>
<path d="m256 38.65c-120.05 0-218.34 98.288-218.34 218.34 0 31.297 6.7302 61.087 18.734 88.07h124.98c-24.856-21.004-40.508-52.45-40.508-88.07 0-64.289 50.845-115.13 115.13-115.13s115.13 50.845 115.13 115.13c0 64.289-50.845 115.13-115.13 115.13-0.30437 0-0.59861-0.036-0.90039-0.0449v-0.0293h-0.60742c-1.2984-0.0581-2.5917-0.13298-3.8906-0.19141v0.19141h-240.6v103.45h245.1v-0.20507c0.3023 1e-3 0.59781 0.0312 0.90039 0.0312 120.05 0 218.34-98.287 218.34-218.34 0-120.05-98.288-218.34-218.34-218.34z" color="#000000" fill="#000003" stroke-linecap="square" style="-inkscape-stroke:none"/>
</g>
</svg>
