<?xml version="1.0" encoding="UTF-8" standalone="no"?>
<!-- Created with Inkscape (http://www.inkscape.org/) -->

<svg
   width="512"
   height="512"
   viewBox="0 0 512 512"
   version="1.1"
   id="svg5"
   sodipodi:docname="outcome.io icon.svg"
   inkscape:export-filename="/home/rafael/Documents/outcome.io icon 192.png"
   inkscape:export-xdpi="36"
   inkscape:export-ydpi="36"
   inkscape:version="1.1.1 (3bf5ae0d25, 2021-09-20)"
   xmlns:inkscape="http://www.inkscape.org/namespaces/inkscape"
   xmlns:sodipodi="http://sodipodi.sourceforge.net/DTD/sodipodi-0.dtd"
   xmlns="http://www.w3.org/2000/svg"
   xmlns:svg="http://www.w3.org/2000/svg">
  <sodipodi:namedview
     id="namedview7"
     pagecolor="#ffffff"
     bordercolor="#666666"
     borderopacity="1.0"
     inkscape:pageshadow="2"
     inkscape:pageopacity="0.0"
     inkscape:pagecheckerboard="0"
     inkscape:document-units="px"
     showgrid="true"
     inkscape:zoom="0.21313477"
     inkscape:cx="-351.89003"
     inkscape:cy="1119.0103"
     inkscape:window-width="2560"
     inkscape:window-height="1376"
     inkscape:window-x="0"
     inkscape:window-y="0"
     inkscape:window-maximized="1"
     inkscape:current-layer="layer1">
    <inkscape:grid
       type="xygrid"
       id="grid4949" />
  </sodipodi:namedview>
  <defs
     id="defs2" />
  <g
     inkscape:label="Layer 1"
     inkscape:groupmode="layer"
     id="layer1">
    <path
       id="path3356-3"
       style="color:#000000;fill:#000000;stroke-width:1.89767;-inkscape-stroke:none"
       d="M 316.24673,475.25779 H 500 v -103.2096 h -95.24041 c -0.93632,1.4579 -1.83102,3.00333 -2.77497,4.44485 -4.7077,7.18941 -9.5115,14.17597 -14.40367,20.94933 -4.89217,6.77338 -9.87218,13.33701 -14.9407,19.67938 -5.06848,6.34237 -10.22461,12.46266 -15.46131,18.35901 -5.23673,5.89633 -10.55517,11.56804 -15.95202,17.00336 -5.3968,5.43535 -10.87204,10.63301 -16.42084,15.59231 -2.81662,2.51739 -5.70513,4.78952 -8.55935,7.18136 z" />
    <path
       style="color:#000000;fill:#000000;stroke:#ffffff;stroke-width:134.94;stroke-linecap:square;stroke-miterlimit:4;stroke-dasharray:none;stroke-opacity:1"
       d="M 256,437.33285 C 156.0754,437.33285 74.756339,355.97376 74.756339,256 74.756339,156.02624 156.0754,74.667151 256,74.667151 c 99.92459,0 181.24366,81.359089 181.24366,181.332849 0,99.97376 -81.31907,181.33285 -181.24366,181.33285 z m 0,-29.25276 c 84.12301,0 152.00528,-67.91568 152.00528,-152.08009 0,-84.16441 -67.88227,-152.08009 -152.00528,-152.08009 -84.12302,0 -152.00529,67.91568 -152.00529,152.08009 0,84.16441 67.88227,152.08009 152.00529,152.08009 z"
       id="path5511-2" />
    <path
       style="color:#000000;fill:#000000;stroke:#000003;stroke-width:73.947;stroke-linecap:square;stroke-miterlimit:4;stroke-dasharray:none;stroke-opacity:1"
       d="m 256,438.35549 c -99.99201,0 -181.365913,-81.37391 -181.365913,-181.36592 0,-99.99201 81.373903,-181.365931 181.365913,-181.365931 99.992,0 181.36591,81.373921 181.36591,181.365931 0,99.99201 -81.37391,181.36592 -181.36591,181.36592 z m 0,-29.25809 c 84.17976,0 152.10782,-67.92807 152.10782,-152.10783 0,-84.17976 -67.92806,-152.10783 -152.10782,-152.10783 -84.17976,0 -152.10782,67.92807 -152.10782,152.10783 0,84.17976 67.92806,152.10783 152.10782,152.10783 z"
       id="path5511" />
    <g
       id="g5517"
       transform="matrix(1.0447761,0,0,0.54020032,-2.4626866,204.94314)"
       style="fill:#ffffff;fill-opacity:1" />
    <g
       id="g5288"
       clip-path="none"
       transform="matrix(1.0281125,0,0,4.9478919,-16.706831,-1856.7517)">
      <g
         id="path3356"
         transform="matrix(1.0447761,0,0,0.56043708,-7.4626816,195.2005)"
         style="fill:#ffffff;fill-opacity:1">
        <path
           style="color:#000000;fill:#ffffff;fill-opacity:1;stroke-width:35.6848;-inkscape-stroke:none"
           d="M 256,463.56587 H 55"
           id="path5141" />
        <path
           style="color:#000000;fill:#ffffff;fill-opacity:1;-inkscape-stroke:none"
           d="M 55,445.72266 V 481.4082 H 256 V 445.72266 Z"
           id="path5138" />
      </g>
    </g>
  </g>
  <g
     inkscape:groupmode="layer"
     id="layer2"
     inkscape:label="Layer 2">
    <path
       style="color:#000000;fill:#000000;stroke-width:1.58432;-inkscape-stroke:none"
       d="M 10,372.04819 V 475.50201 H 255.1004 V 372.04819 Z"
       id="path3356-5" />
  </g>
</svg>
